<svg width="50" height="50" viewBox="0 0 50 50" fill="none" xmlns="http://www.w3.org/2000/svg">
<g clip-path="url(#clip0_1723_239)">
<path d="M1.28428 24.42L18.6559 47.9241C19.9676 49.6991 22.6368 49.545 23.7426 47.6316L48.8451 4.1783C50.1526 1.91497 47.1693 -0.359196 45.3918 1.5458L19.2384 29.56L4.06428 21.16C2.01345 20.025 -0.117388 22.5233 1.28428 24.42Z" fill="#91B706"/>
<path d="M17.9859 48.42C18.7243 49.4192 19.8768 50 21.1009 50C21.1734 50 21.2459 49.9984 21.3193 49.9942C22.6276 49.92 23.8026 49.1925 24.4643 48.0484L45.7218 11.25C45.9518 10.8517 45.8151 10.3417 45.4168 10.1117C45.0184 9.88087 44.5084 10.0175 44.2784 10.4167L23.0209 47.215C22.6368 47.8809 21.9818 48.2867 21.2259 48.33C20.4793 48.3734 19.7809 48.0442 19.3259 47.4292L1.95425 23.9242C1.46175 23.2584 1.68592 22.5675 2.02759 22.1775C2.36759 21.7892 2.97759 21.5092 3.66092 21.8884L18.8351 30.2875C19.1684 30.4717 19.5868 30.4075 19.8484 30.1275L46.0001 2.11421C46.5959 1.47671 47.2968 1.61087 47.7534 1.94837C48.2118 2.28754 48.5834 2.96587 48.1234 3.76087L45.9451 7.53087C45.7151 7.93004 45.8518 8.43921 46.2501 8.66921C46.6468 8.89921 47.1576 8.76254 47.3884 8.36504L49.5667 4.59421C50.5051 2.96921 49.7976 1.38837 48.7451 0.608373C47.4842 -0.325793 45.8559 -0.173293 44.7817 0.97504L19.0726 28.5134L4.46759 20.4309C3.20842 19.7334 1.72509 19.995 0.773419 21.0792C-0.199081 22.1884 -0.263248 23.7292 0.614252 24.915L17.9859 48.42Z" fill="#062B76"/>
</g>
<defs>
<clipPath id="clip0_1723_239">
<rect width="50" height="50" fill="white"/>
</clipPath>
</defs>
</svg>
