<svg width="34" height="24" viewBox="0 0 34 24" fill="none" xmlns="http://www.w3.org/2000/svg">
<g filter="url(#filter0_i_2980_1351)">
<path d="M2 10.5C1.17157 10.5 0.5 11.1716 0.5 12C0.5 12.8284 1.17157 13.5 2 13.5V12V10.5ZM33.0607 13.0607C33.6464 12.4749 33.6464 11.5251 33.0607 10.9393L23.5147 1.3934C22.9289 0.807611 21.9792 0.807611 21.3934 1.3934C20.8076 1.97919 20.8076 2.92893 21.3934 3.51472L29.8787 12L21.3934 20.4853C20.8076 21.0711 20.8076 22.0208 21.3934 22.6066C21.9792 23.1924 22.9289 23.1924 23.5147 22.6066L33.0607 13.0607ZM2 12V13.5H32V12V10.5H2V12Z" fill="#FFF4EC"/>
</g>
<defs>
<filter id="filter0_i_2980_1351" x="0.5" y="0.954102" width="33" height="26.0918" filterUnits="userSpaceOnUse" color-interpolation-filters="sRGB">
<feFlood flood-opacity="0" result="BackgroundImageFix"/>
<feBlend mode="normal" in="SourceGraphic" in2="BackgroundImageFix" result="shape"/>
<feColorMatrix in="SourceAlpha" type="matrix" values="0 0 0 0 0 0 0 0 0 0 0 0 0 0 0 0 0 0 127 0" result="hardAlpha"/>
<feOffset dy="4"/>
<feGaussianBlur stdDeviation="2"/>
<feComposite in2="hardAlpha" operator="arithmetic" k2="-1" k3="1"/>
<feColorMatrix type="matrix" values="0 0 0 0 0 0 0 0 0 0 0 0 0 0 0 0 0 0 0.25 0"/>
<feBlend mode="normal" in2="shape" result="effect1_innerShadow_2980_1351"/>
</filter>
</defs>
</svg>
