<svg width="46" height="46" viewBox="0 0 46 46" fill="none" xmlns="http://www.w3.org/2000/svg">
<g filter="url(#filter0_i_5017_948)">
<path d="M3 20.5C1.61929 20.5 0.5 21.6193 0.5 23C0.5 24.3807 1.61929 25.5 3 25.5V23V20.5ZM44.7678 24.7678C45.7441 23.7915 45.7441 22.2085 44.7678 21.2322L28.8579 5.32233C27.8816 4.34602 26.2986 4.34602 25.3223 5.32233C24.346 6.29864 24.346 7.88155 25.3223 8.85786L39.4645 23L25.3223 37.1421C24.346 38.1184 24.346 39.7014 25.3223 40.6777C26.2986 41.654 27.8816 41.654 28.8579 40.6777L44.7678 24.7678ZM3 23V25.5H43V23V20.5H3V23Z" fill="#B6683A"/>
</g>
<defs>
<filter id="filter0_i_5017_948" x="0.5" y="4.59009" width="45" height="40.8198" filterUnits="userSpaceOnUse" color-interpolation-filters="sRGB">
<feFlood flood-opacity="0" result="BackgroundImageFix"/>
<feBlend mode="normal" in="SourceGraphic" in2="BackgroundImageFix" result="shape"/>
<feColorMatrix in="SourceAlpha" type="matrix" values="0 0 0 0 0 0 0 0 0 0 0 0 0 0 0 0 0 0 127 0" result="hardAlpha"/>
<feOffset dy="4"/>
<feGaussianBlur stdDeviation="2"/>
<feComposite in2="hardAlpha" operator="arithmetic" k2="-1" k3="1"/>
<feColorMatrix type="matrix" values="0 0 0 0 0 0 0 0 0 0 0 0 0 0 0 0 0 0 0.25 0"/>
<feBlend mode="normal" in2="shape" result="effect1_innerShadow_5017_948"/>
</filter>
</defs>
</svg>
