<svg width="var(--w-svg-arrow, 40)" height="var(--h-svg-arrow, 40)" viewBox="0 0 40 40" fill="none" xmlns="http://www.w3.org/2000/svg">
<path d="M3 17.5C1.61929 17.5 0.5 18.6193 0.5 20C0.5 21.3807 1.61929 22.5 3 22.5V20V17.5ZM38.7678 21.7678C39.7441 20.7915 39.7441 19.2085 38.7678 18.2322L22.8579 2.32233C21.8816 1.34602 20.2986 1.34602 19.3223 2.32233C18.346 3.29864 18.346 4.88155 19.3223 5.85786L33.4645 20L19.3223 34.1421C18.346 35.1184 18.346 36.7014 19.3223 37.6777C20.2986 38.654 21.8816 38.654 22.8579 37.6777L38.7678 21.7678ZM3 20V22.5H37V20V17.5H3V20Z" fill="#B6683A"/>
</svg>
