<svg width="var(--w-quotation, 111)" height="var(--h-quotation, 89)" viewBox="0 0 111 89" fill="none" xmlns="http://www.w3.org/2000/svg">
<g filter="url(#filter0_i_2898_72)">
<path d="M5.73237 85.4044C5.05402 86.8087 5.71815 87.7719 7.03514 88.5509C7.50076 88.8263 7.8032 88.9578 8.33791 89.0004C9.03508 89.0559 10.0749 88.5509 10.0749 88.5509C10.0749 88.5509 12.7376 87.2134 14.4175 86.3034C17.1759 84.8094 18.7233 83.9621 21.3656 82.2579C25.0801 79.8623 27.2145 78.5258 30.485 75.5155C33.8949 72.3768 35.6493 70.3689 38.3016 66.5255C40.6858 63.0707 41.9098 60.9942 43.5127 57.086C45.8274 51.4422 46.2943 47.8924 46.9867 41.8031C47.4233 37.9637 47.6482 35.7729 47.421 31.9142C47.1155 26.7253 46.8214 23.6445 44.8155 18.8787C42.8233 14.1456 41.0583 11.6367 37.4331 8.09075C34.3221 5.04785 32.3633 3.23238 28.3137 1.79778C23.1793 -0.0211346 19.5519 -0.0211346 14.4175 1.79778C10.3679 3.23238 8.12593 4.76495 5.29811 8.09075C1.88496 12.105 0.480217 15.3447 0.0870351 20.6767C-0.242026 25.1391 0.336569 27.9051 2.25832 31.9142C4.44426 36.4743 6.47029 39.2378 10.9434 41.3536C15.1195 43.3289 18.1904 43.3023 22.6684 42.2526C25.5569 41.5755 29.6165 39.1061 29.6165 39.1061C29.6165 39.1061 31.7878 37.5476 31.7878 40.0051V46.2981C31.7878 48.7556 31.3842 52.132 30.485 55.7375C29.2883 60.5359 28.2159 63.203 25.7082 67.4245C22.1274 73.4524 19.0979 76.3268 13.549 80.4599C10.6452 82.6229 6.16663 84.5054 5.73237 85.4044Z" fill="#B6683A"/>
<path d="M69.2216 84.9708C68.5433 86.3752 69.2074 87.3383 70.5244 88.1173C70.99 88.3927 71.2925 88.5242 71.8272 88.5668C72.5243 88.6223 73.5642 88.1173 73.5642 88.1173C73.5642 88.1173 76.2268 86.7798 77.9068 85.8698C80.6651 84.3758 82.2126 83.5285 84.8549 81.8243C88.5694 79.4287 90.7037 78.0922 93.9742 75.0819C97.3842 71.9432 99.1385 69.9354 101.791 66.0919C104.175 62.6371 105.399 60.5606 107.002 56.6524C109.317 51.0086 109.784 47.4588 110.476 41.3695C110.913 37.5302 111.137 35.3393 110.91 31.4806C110.605 26.2917 110.311 23.2109 108.305 18.4451C106.313 13.712 104.548 11.2031 100.922 7.65716C97.8114 4.61426 95.8526 2.79879 91.803 1.36418C86.6685 -0.454728 83.0412 -0.454728 77.9068 1.36418C73.8572 2.79879 71.6152 4.33136 68.7874 7.65716C65.3742 11.6714 63.9695 14.9111 63.5763 20.2431C63.2472 24.7055 63.8258 27.4715 65.7476 31.4806C67.9335 36.0407 69.9595 38.8042 74.4327 40.92C78.6088 42.8953 81.6796 42.8687 86.1576 41.819C89.0462 41.1419 93.1057 38.6725 93.1057 38.6725C93.1057 38.6725 95.277 37.114 95.277 39.5715V45.8645C95.277 48.3221 94.8735 51.6984 93.9742 55.304C92.7775 60.1023 91.7052 62.7694 89.1974 66.9909C85.6166 73.0188 82.5872 75.8932 77.0382 80.0264C74.1345 82.1893 69.6559 84.0718 69.2216 84.9708Z" fill="#B6683A"/>
</g>
<defs>
<filter id="filter0_i_2898_72" x="0" y="0" width="111" height="93.0046" filterUnits="userSpaceOnUse" color-interpolation-filters="sRGB">
<feFlood flood-opacity="0" result="BackgroundImageFix"/>
<feBlend mode="normal" in="SourceGraphic" in2="BackgroundImageFix" result="shape"/>
<feColorMatrix in="SourceAlpha" type="matrix" values="0 0 0 0 0 0 0 0 0 0 0 0 0 0 0 0 0 0 127 0" result="hardAlpha"/>
<feOffset dy="4"/>
<feGaussianBlur stdDeviation="2"/>
<feComposite in2="hardAlpha" operator="arithmetic" k2="-1" k3="1"/>
<feColorMatrix type="matrix" values="0 0 0 0 0 0 0 0 0 0 0 0 0 0 0 0 0 0 0.25 0"/>
<feBlend mode="normal" in2="shape" result="effect1_innerShadow_2898_72"/>
</filter>
</defs>
</svg>
