<svg width="var(--w-quotation, 111)" height="var(--h-quotation, 89)" viewBox="0 0 111 89" fill="none" xmlns="http://www.w3.org/2000/svg">
<g filter="url(#filter0_i_2779_46)">
<path d="M105.268 3.60021C105.946 2.19589 105.282 1.2327 103.965 0.453728C103.499 0.178314 103.197 0.0468063 102.662 0.00422668C101.965 -0.0512848 100.925 0.453728 100.925 0.453728C100.925 0.453728 98.2624 1.79128 96.5825 2.70122C93.8241 4.19528 92.2767 5.04257 89.6344 6.7467C85.9199 9.14236 83.7855 10.4789 80.515 13.4892C77.1051 16.6278 75.3507 18.6357 72.6984 22.4791C70.3142 25.934 69.0902 28.0104 67.4873 31.9186C65.1726 37.5624 64.7057 41.1122 64.0133 47.2015C63.5767 51.0409 63.3518 53.2318 63.579 57.0905C63.8845 62.2793 64.1786 65.3601 66.1845 70.1259C68.1767 74.859 69.9417 77.368 73.5669 80.9139C76.6779 83.9568 78.6367 85.7723 82.6863 87.2069C87.8207 89.0258 91.4481 89.0258 96.5825 87.2069C100.632 85.7723 102.874 84.2397 105.702 80.9139C109.115 76.8997 110.52 73.6599 110.913 68.3279C111.242 63.8655 110.663 61.0995 108.742 57.0905C106.556 52.5303 104.53 49.7668 100.057 47.651C95.8805 45.6758 92.8096 45.7023 88.3316 46.752C85.4431 47.4292 81.3835 49.8985 81.3835 49.8985C81.3835 49.8985 79.2122 51.4571 79.2122 48.9995V42.7066C79.2122 40.249 79.6158 36.8727 80.515 33.2671C81.7117 28.4687 82.7841 25.8016 85.2918 21.5801C88.8726 15.5523 91.9021 12.6779 97.451 8.54469C100.355 6.38178 104.833 4.49921 105.268 3.60021Z" fill="#B6683A"/>
<path d="M41.7784 4.03381C42.4567 2.62949 41.7926 1.6663 40.4756 0.887321C40.01 0.611908 39.7075 0.4804 39.1728 0.43782C38.4757 0.382309 37.4358 0.887321 37.4358 0.887321C37.4358 0.887321 34.7732 2.22488 33.0932 3.13481C30.3349 4.62888 28.7874 5.47617 26.1451 7.18029C22.4306 9.57595 20.2963 10.9124 17.0258 13.9228C13.6158 17.0614 11.8615 19.0693 9.20914 22.9127C6.82495 26.3676 5.6009 28.444 3.99806 32.3522C1.68337 37.996 1.21643 41.5458 0.52401 47.6351C0.0874329 51.4745 -0.137436 53.6654 0.0897522 57.5241C0.395252 62.7129 0.689354 65.7937 2.69529 70.5595C4.68746 75.2926 6.45243 77.8016 10.0777 81.3475C13.1886 84.3904 15.1474 86.2059 19.197 87.6405C24.3315 89.4594 27.9588 89.4594 33.0932 87.6405C37.1428 86.2059 39.3848 84.6733 42.2126 81.3475C45.6258 77.3333 47.0305 74.0935 47.4237 68.7615C47.7528 64.2991 47.1742 61.5331 45.2524 57.5241C43.0665 52.9639 41.0405 50.2004 36.5673 48.0846C32.3912 46.1094 29.3204 46.1359 24.8424 47.1856C21.9538 47.8628 17.8943 50.3321 17.8943 50.3321C17.8943 50.3321 15.723 51.8907 15.723 49.4331V43.1401C15.723 40.6826 16.1265 37.3062 17.0258 33.7007C18.2225 28.9023 19.2948 26.2352 21.8026 22.0137C25.3834 15.9859 28.4128 13.1115 33.9618 8.97829C36.8655 6.81538 41.3441 4.9328 41.7784 4.03381Z" fill="#B6683A"/>
</g>
<defs>
<filter id="filter0_i_2779_46" x="0" y="0" width="111" height="93.0046" filterUnits="userSpaceOnUse" color-interpolation-filters="sRGB">
<feFlood flood-opacity="0" result="BackgroundImageFix"/>
<feBlend mode="normal" in="SourceGraphic" in2="BackgroundImageFix" result="shape"/>
<feColorMatrix in="SourceAlpha" type="matrix" values="0 0 0 0 0 0 0 0 0 0 0 0 0 0 0 0 0 0 127 0" result="hardAlpha"/>
<feOffset dy="4"/>
<feGaussianBlur stdDeviation="2"/>
<feComposite in2="hardAlpha" operator="arithmetic" k2="-1" k3="1"/>
<feColorMatrix type="matrix" values="0 0 0 0 0 0 0 0 0 0 0 0 0 0 0 0 0 0 0.25 0"/>
<feBlend mode="normal" in2="shape" result="effect1_innerShadow_2779_46"/>
</filter>
</defs>
</svg>
