<svg width="65" height="49" viewBox="0 0 65 49" fill="none" xmlns="http://www.w3.org/2000/svg">
<path d="M11.0513 17.2608C11.0513 17.2608 9.95293 16.7049 9.18724 16.5995C8.67218 16.5287 8.36812 16.5115 7.85575 16.5995C7.08607 16.7318 6.25797 17.2608 6.25797 17.2608C6.25797 17.2608 2.52982 20.4347 0.828567 22.9303C0.303005 23.7013 0 24.2645 0 25.1956C0 26.1266 0.79889 27.4438 0.79889 27.4438L21.4369 47.942L22.6352 48.7355L24.233 49L25.2982 48.8678L26.3634 48.3388L64.3106 10.9129C64.3106 10.9129 64.8482 9.86808 64.9764 9.06149C65.098 8.29628 64.7101 6.94554 64.7101 6.94554L63.2455 5.09408L61.5145 3.37488L59.5173 1.39117L57.9195 0.0686974C57.9195 0.0686974 56.5534 -0.0858718 55.7892 0.0686974C55.0131 0.225653 53.9251 0.862178 53.9251 0.862178L26.3634 27.4438C26.3634 27.4438 25.103 28.052 24.233 28.105C23.499 28.1498 22.3689 27.8405 22.3689 27.8405L18.6408 24.1376L11.0513 17.2608Z" fill="url(#paint0_linear_1385_7192)"/>
<defs>
<linearGradient id="paint0_linear_1385_7192" x1="23.4341" y1="0.39674" x2="24.2222" y2="51.4442" gradientUnits="userSpaceOnUse">
<stop stop-color="#4AEBBF"/>
<stop offset="0.507411" stop-color="#25C67A"/>
<stop offset="1" stop-color="#177D36"/>
</linearGradient>
</defs>
</svg>
