<svg width="153" height="137" viewBox="0 0 153 137" fill="none" xmlns="http://www.w3.org/2000/svg">
<mask id="path-1-outside-1_2840_1334" maskUnits="userSpaceOnUse" x="0" y="0" width="153" height="137" fill="black">
<rect fill="white" width="153" height="137"/>
<path d="M44.6 135.2C35.8 135.2 28.2 132.467 21.8 127C15.4 121.533 10.4 113.867 6.8 104C3.33333 94.1333 1.6 82.5333 1.6 69.2C1.6 55.6 3.46667 43.7333 7.2 33.6C10.9333 23.3333 16.1333 15.4 22.8 9.79999C29.6 4.06666 37.4 1.19999 46.2 1.19999C54.8667 1.19999 62.4 3.93333 68.8 9.39999C75.2 14.8667 80.1333 22.5333 83.6 32.4C87.2 42.2667 89 53.8 89 67C89 80.7333 87.1333 92.7333 83.4 103C79.6667 113.133 74.4667 121.067 67.8 126.8C61.1333 132.4 53.4 135.2 44.6 135.2ZM46 123.6C51.8667 123.6 56.8667 121.333 61 116.8C65.1333 112.267 68.3333 106 70.6 98C72.8667 89.8667 74 80.4 74 69.6C74 58.1333 72.8 48.2 70.4 39.8C68 31.2667 64.5333 24.6667 60 20C55.6 15.2 50.4667 12.8 44.6 12.8C39 12.8 34.0667 15.0667 29.8 19.6C25.5333 24.1333 22.2667 30.4 20 38.4C17.7333 46.4 16.6 55.8 16.6 66.6C16.6 78.0667 17.8 88.0667 20.2 96.6C22.7333 105.133 26.2 111.8 30.6 116.6C35.1333 121.267 40.2667 123.6 46 123.6ZM137.394 134V14L147.794 13.6L107.794 40L101.594 29.4L143.994 2.39999H151.194V134H137.394Z"/>
</mask>
<g filter="url(#filter0_i_2840_1334)">
<path d="M44.6 135.2C35.8 135.2 28.2 132.467 21.8 127C15.4 121.533 10.4 113.867 6.8 104C3.33333 94.1333 1.6 82.5333 1.6 69.2C1.6 55.6 3.46667 43.7333 7.2 33.6C10.9333 23.3333 16.1333 15.4 22.8 9.79999C29.6 4.06666 37.4 1.19999 46.2 1.19999C54.8667 1.19999 62.4 3.93333 68.8 9.39999C75.2 14.8667 80.1333 22.5333 83.6 32.4C87.2 42.2667 89 53.8 89 67C89 80.7333 87.1333 92.7333 83.4 103C79.6667 113.133 74.4667 121.067 67.8 126.8C61.1333 132.4 53.4 135.2 44.6 135.2ZM46 123.6C51.8667 123.6 56.8667 121.333 61 116.8C65.1333 112.267 68.3333 106 70.6 98C72.8667 89.8667 74 80.4 74 69.6C74 58.1333 72.8 48.2 70.4 39.8C68 31.2667 64.5333 24.6667 60 20C55.6 15.2 50.4667 12.8 44.6 12.8C39 12.8 34.0667 15.0667 29.8 19.6C25.5333 24.1333 22.2667 30.4 20 38.4C17.7333 46.4 16.6 55.8 16.6 66.6C16.6 78.0667 17.8 88.0667 20.2 96.6C22.7333 105.133 26.2 111.8 30.6 116.6C35.1333 121.267 40.2667 123.6 46 123.6ZM137.394 134V14L147.794 13.6L107.794 40L101.594 29.4L143.994 2.39999H151.194V134H137.394Z" fill="#FFF4EC"/>
</g>
<path d="M21.8 127L22.4495 126.24L21.8 127ZM6.8 104L5.85647 104.332L5.86058 104.343L6.8 104ZM7.2 33.6L8.13835 33.9457L8.13979 33.9417L7.2 33.6ZM22.8 9.79999L23.4432 10.5657L23.4446 10.5645L22.8 9.79999ZM68.8 9.39999L69.4495 8.63962L68.8 9.39999ZM83.6 32.4L82.6565 32.7315L82.6606 32.7428L83.6 32.4ZM83.4 103L84.3384 103.346L84.3398 103.342L83.4 103ZM67.8 126.8L68.4432 127.566L68.452 127.558L67.8 126.8ZM61 116.8L61.739 117.474L61 116.8ZM70.6 98L71.5621 98.2726L71.5633 98.2685L70.6 98ZM70.4 39.8L69.4373 40.0707L69.4385 40.0747L70.4 39.8ZM60 20L59.2629 20.6757L59.2726 20.6864L59.2827 20.6968L60 20ZM20 38.4L20.9621 38.6726L20 38.4ZM20.2 96.6L19.2374 96.8707L19.2393 96.8777L19.2414 96.8846L20.2 96.6ZM30.6 116.6L29.8629 117.276L29.8726 117.286L29.8827 117.297L30.6 116.6ZM44.6 135.2V134.2C36.0263 134.2 28.6597 131.544 22.4495 126.24L21.8 127L21.1505 127.76C27.7403 133.389 35.5737 136.2 44.6 136.2V135.2ZM21.8 127L22.4495 126.24C16.2092 120.909 11.2948 113.402 7.73942 103.657L6.8 104L5.86058 104.343C9.50519 114.332 14.5908 122.157 21.1505 127.76L21.8 127ZM6.8 104L7.74346 103.669C4.3229 93.9331 2.6 82.45 2.6 69.2H1.6H0.6C0.6 82.6167 2.34377 94.3336 5.85654 104.331L6.8 104ZM1.6 69.2H2.6C2.6 55.6887 4.45483 43.9438 8.13834 33.9457L7.2 33.6L6.26166 33.2543C2.47851 43.5228 0.6 55.5113 0.6 69.2H1.6ZM7.2 33.6L8.13979 33.9417C11.8282 23.7985 16.941 16.0275 23.4432 10.5657L22.8 9.79999L22.1568 9.03429C15.3256 14.7725 10.0384 22.8681 6.26021 33.2582L7.2 33.6ZM22.8 9.79999L23.4446 10.5645C30.0664 4.98146 37.6387 2.2 46.2 2.2V1.2V0.199993C37.1613 0.199993 29.1336 3.15186 22.1554 9.03547L22.8 9.79999ZM46.2 1.2V2.2C54.6363 2.2 61.9374 4.8533 68.1505 10.1604L68.8 9.39999L69.4495 8.63962C62.8626 3.01336 55.0971 0.199993 46.2 0.199993V1.2ZM68.8 9.39999L68.1505 10.1604C74.3875 15.4878 79.2343 22.9912 82.6565 32.7315L83.6 32.4L84.5435 32.0685C81.0324 22.0754 76.0125 14.2455 69.4495 8.63962L68.8 9.39999ZM83.6 32.4L82.6606 32.7428C86.2117 42.4755 88 53.8881 88 67H89H90C90 53.7119 88.1883 42.0579 84.5394 32.0572L83.6 32.4ZM89 67H88C88 80.6455 86.145 92.5252 82.4602 102.658L83.4 103L84.3398 103.342C88.1217 92.9415 90 80.8212 90 67H89ZM83.4 103L82.4617 102.654C78.7738 112.664 73.6594 120.442 67.148 126.042L67.8 126.8L68.452 127.558C75.274 121.691 80.5595 113.603 84.3383 103.346L83.4 103ZM67.8 126.8L67.1568 126.034C60.6724 131.481 53.1675 134.2 44.6 134.2V135.2V136.2C53.6325 136.2 61.5943 133.319 68.4432 127.566L67.8 126.8ZM46 123.6V124.6C52.1621 124.6 57.4259 122.204 61.739 117.474L61 116.8L60.261 116.126C56.3074 120.462 51.5712 122.6 46 122.6V123.6ZM61 116.8L61.739 117.474C66.0071 112.793 69.2675 106.371 71.5621 98.2726L70.6 98L69.6379 97.7274C67.3992 105.629 64.2595 111.741 60.261 116.126L61 116.8ZM70.6 98L71.5633 98.2685C73.86 90.0273 75 80.4668 75 69.6H74H73C73 80.3332 71.8733 89.706 69.6367 97.7315L70.6 98ZM74 69.6H75C75 58.0676 73.7936 48.0375 71.3615 39.5253L70.4 39.8L69.4385 40.0747C71.8064 48.3625 73 58.199 73 69.6H74ZM70.4 39.8L71.3627 39.5293C68.9332 30.8911 65.401 24.1247 60.7173 19.3032L60 20L59.2827 20.6968C63.6657 25.2086 67.0668 31.6422 69.4374 40.0707L70.4 39.8ZM60 20L60.7372 19.3243C56.1709 14.3429 50.7795 11.8 44.6 11.8V12.8V13.8C50.1539 13.8 55.0291 16.0571 59.2629 20.6757L60 20ZM44.6 12.8V11.8C38.692 11.8 33.5041 14.2053 29.0718 18.9146L29.8 19.6L30.5282 20.2854C34.6292 15.928 39.308 13.8 44.6 13.8V12.8ZM29.8 19.6L29.0718 18.9146C24.6646 23.5973 21.3342 30.0227 19.0379 38.1274L20 38.4L20.9621 38.6726C23.1991 30.7773 26.4021 24.6693 30.5282 20.2854L29.8 19.6ZM20 38.4L19.0379 38.1274C16.7399 46.238 15.6 55.7337 15.6 66.6H16.6H17.6C17.6 55.8663 18.7268 46.562 20.9621 38.6726L20 38.4ZM16.6 66.6H15.6C15.6 78.1329 16.8065 88.2279 19.2374 96.8707L20.2 96.6L21.1627 96.3293C18.7935 87.9054 17.6 78.0004 17.6 66.6H16.6ZM20.2 96.6L19.2414 96.8846C21.8029 105.513 25.3298 112.331 29.8629 117.276L30.6 116.6L31.3372 115.924C27.0702 111.269 23.6638 104.754 21.1586 96.3154L20.2 96.6ZM30.6 116.6L29.8827 117.297C34.5766 122.129 39.959 124.6 46 124.6V123.6V122.6C40.5743 122.6 35.6901 120.405 31.3173 115.903L30.6 116.6ZM137.394 134H136.394V135H137.394V134ZM137.394 14L137.355 13.0007L136.394 13.0377V14H137.394ZM147.794 13.6L148.345 14.4346L151.332 12.4632L147.755 12.6007L147.794 13.6ZM107.794 40L106.931 40.5049L107.464 41.4161L108.345 40.8346L107.794 40ZM101.594 29.4L101.057 28.5565L100.244 29.0737L100.731 29.9049L101.594 29.4ZM143.994 2.39999V1.39999H143.702L143.457 1.5565L143.994 2.39999ZM151.194 2.39999H152.194V1.39999H151.194V2.39999ZM151.194 134V135H152.194V134H151.194ZM137.394 134H138.394V14H137.394H136.394V134H137.394ZM137.394 14L137.432 14.9993L147.832 14.5993L147.794 13.6L147.755 12.6007L137.355 13.0007L137.394 14ZM147.794 13.6L147.243 12.7654L107.243 39.1654L107.794 40L108.345 40.8346L148.345 14.4346L147.794 13.6ZM107.794 40L108.657 39.4951L102.457 28.8951L101.594 29.4L100.731 29.9049L106.931 40.5049L107.794 40ZM101.594 29.4L102.131 30.2435L144.531 3.24348L143.994 2.39999L143.457 1.5565L101.057 28.5565L101.594 29.4ZM143.994 2.39999V3.39999H151.194V2.39999V1.39999H143.994V2.39999ZM151.194 2.39999H150.194V134H151.194H152.194V2.39999H151.194ZM151.194 134V133H137.394V134V135H151.194V134Z" fill="#FFF4EC" mask="url(#path-1-outside-1_2840_1334)"/>
<defs>
<filter id="filter0_i_2840_1334" x="0.599609" y="0.200195" width="151.594" height="140" filterUnits="userSpaceOnUse" color-interpolation-filters="sRGB">
<feFlood flood-opacity="0" result="BackgroundImageFix"/>
<feBlend mode="normal" in="SourceGraphic" in2="BackgroundImageFix" result="shape"/>
<feColorMatrix in="SourceAlpha" type="matrix" values="0 0 0 0 0 0 0 0 0 0 0 0 0 0 0 0 0 0 127 0" result="hardAlpha"/>
<feOffset dy="8"/>
<feGaussianBlur stdDeviation="2"/>
<feComposite in2="hardAlpha" operator="arithmetic" k2="-1" k3="1"/>
<feColorMatrix type="matrix" values="0 0 0 0 0 0 0 0 0 0 0 0 0 0 0 0 0 0 0.25 0"/>
<feBlend mode="normal" in2="shape" result="effect1_innerShadow_2840_1334"/>
</filter>
</defs>
</svg>
