<svg width="185" height="137" viewBox="0 0 185 137" fill="none" xmlns="http://www.w3.org/2000/svg">
<mask id="path-1-outside-1_2840_1359" maskUnits="userSpaceOnUse" x="0" y="0" width="185" height="137" fill="black">
<rect fill="white" width="185" height="137"/>
<path d="M44.6 135.2C35.8 135.2 28.2 132.467 21.8 127C15.4 121.533 10.4 113.867 6.8 104C3.33333 94.1333 1.6 82.5333 1.6 69.2C1.6 55.6 3.46667 43.7333 7.2 33.6C10.9333 23.3333 16.1333 15.4 22.8 9.79999C29.6 4.06666 37.4 1.19999 46.2 1.19999C54.8667 1.19999 62.4 3.93333 68.8 9.39999C75.2 14.8667 80.1333 22.5333 83.6 32.4C87.2 42.2667 89 53.8 89 67C89 80.7333 87.1333 92.7333 83.4 103C79.6667 113.133 74.4667 121.067 67.8 126.8C61.1333 132.4 53.4 135.2 44.6 135.2ZM46 123.6C51.8667 123.6 56.8667 121.333 61 116.8C65.1333 112.267 68.3333 106 70.6 98C72.8667 89.8667 74 80.4 74 69.6C74 58.1333 72.8 48.2 70.4 39.8C68 31.2667 64.5333 24.6667 60 20C55.6 15.2 50.4667 12.8 44.6 12.8C39 12.8 34.0667 15.0667 29.8 19.6C25.5333 24.1333 22.2667 30.4 20 38.4C17.7333 46.4 16.6 55.8 16.6 66.6C16.6 78.0667 17.8 88.0667 20.2 96.6C22.7333 105.133 26.2 111.8 30.6 116.6C35.1333 121.267 40.2667 123.6 46 123.6ZM101.594 126.6C111.194 117.133 119.86 108.333 127.594 100.2C135.46 91.9333 142.06 84.2 147.394 77C152.86 69.8 157.06 62.9333 159.994 56.4C162.927 49.8667 164.394 43.6 164.394 37.6C164.394 30.1333 162.26 24.1333 157.994 19.6C153.86 15.0667 148.127 12.8 140.794 12.8C135.327 12.8 130.06 14.5333 124.994 18C120.06 21.3333 116.06 27.1333 112.994 35.4L102.594 30.8C107.127 19.8667 112.994 12.2 120.194 7.79999C127.527 3.39999 135.327 1.19999 143.594 1.19999C151.06 1.19999 157.327 2.73333 162.394 5.79999C167.594 8.73333 171.46 12.8 173.994 18C176.66 23.0667 177.994 28.8 177.994 35.2C177.994 44.1333 175.46 53.5333 170.394 63.4C165.327 73.1333 158.127 83.3333 148.794 94C139.46 104.533 128.46 115.733 115.794 127.6L117.394 122H183.594V134H103.994L101.594 126.6Z"/>
</mask>
<g filter="url(#filter0_i_2840_1359)">
<path d="M44.6 135.2C35.8 135.2 28.2 132.467 21.8 127C15.4 121.533 10.4 113.867 6.8 104C3.33333 94.1333 1.6 82.5333 1.6 69.2C1.6 55.6 3.46667 43.7333 7.2 33.6C10.9333 23.3333 16.1333 15.4 22.8 9.79999C29.6 4.06666 37.4 1.19999 46.2 1.19999C54.8667 1.19999 62.4 3.93333 68.8 9.39999C75.2 14.8667 80.1333 22.5333 83.6 32.4C87.2 42.2667 89 53.8 89 67C89 80.7333 87.1333 92.7333 83.4 103C79.6667 113.133 74.4667 121.067 67.8 126.8C61.1333 132.4 53.4 135.2 44.6 135.2ZM46 123.6C51.8667 123.6 56.8667 121.333 61 116.8C65.1333 112.267 68.3333 106 70.6 98C72.8667 89.8667 74 80.4 74 69.6C74 58.1333 72.8 48.2 70.4 39.8C68 31.2667 64.5333 24.6667 60 20C55.6 15.2 50.4667 12.8 44.6 12.8C39 12.8 34.0667 15.0667 29.8 19.6C25.5333 24.1333 22.2667 30.4 20 38.4C17.7333 46.4 16.6 55.8 16.6 66.6C16.6 78.0667 17.8 88.0667 20.2 96.6C22.7333 105.133 26.2 111.8 30.6 116.6C35.1333 121.267 40.2667 123.6 46 123.6ZM101.594 126.6C111.194 117.133 119.86 108.333 127.594 100.2C135.46 91.9333 142.06 84.2 147.394 77C152.86 69.8 157.06 62.9333 159.994 56.4C162.927 49.8667 164.394 43.6 164.394 37.6C164.394 30.1333 162.26 24.1333 157.994 19.6C153.86 15.0667 148.127 12.8 140.794 12.8C135.327 12.8 130.06 14.5333 124.994 18C120.06 21.3333 116.06 27.1333 112.994 35.4L102.594 30.8C107.127 19.8667 112.994 12.2 120.194 7.79999C127.527 3.39999 135.327 1.19999 143.594 1.19999C151.06 1.19999 157.327 2.73333 162.394 5.79999C167.594 8.73333 171.46 12.8 173.994 18C176.66 23.0667 177.994 28.8 177.994 35.2C177.994 44.1333 175.46 53.5333 170.394 63.4C165.327 73.1333 158.127 83.3333 148.794 94C139.46 104.533 128.46 115.733 115.794 127.6L117.394 122H183.594V134H103.994L101.594 126.6Z" fill="#FFF4EC"/>
</g>
<path d="M21.8 127L22.4495 126.24L21.8 127ZM6.8 104L5.85647 104.332L5.86058 104.343L6.8 104ZM7.2 33.6L8.13835 33.9457L8.13979 33.9417L7.2 33.6ZM22.8 9.79999L23.4432 10.5657L23.4446 10.5645L22.8 9.79999ZM68.8 9.39999L69.4495 8.63962L68.8 9.39999ZM83.6 32.4L82.6565 32.7315L82.6606 32.7428L83.6 32.4ZM83.4 103L84.3384 103.346L84.3398 103.342L83.4 103ZM67.8 126.8L68.4432 127.566L68.452 127.558L67.8 126.8ZM61 116.8L61.739 117.474L61 116.8ZM70.6 98L71.5621 98.2726L71.5633 98.2685L70.6 98ZM70.4 39.8L69.4373 40.0707L69.4385 40.0747L70.4 39.8ZM60 20L59.2629 20.6757L59.2726 20.6864L59.2827 20.6968L60 20ZM20 38.4L20.9621 38.6726L20 38.4ZM20.2 96.6L19.2374 96.8707L19.2393 96.8777L19.2414 96.8846L20.2 96.6ZM30.6 116.6L29.8629 117.276L29.8726 117.286L29.8827 117.297L30.6 116.6ZM44.6 135.2V134.2C36.0263 134.2 28.6597 131.544 22.4495 126.24L21.8 127L21.1505 127.76C27.7403 133.389 35.5737 136.2 44.6 136.2V135.2ZM21.8 127L22.4495 126.24C16.2092 120.909 11.2948 113.402 7.73942 103.657L6.8 104L5.86058 104.343C9.50519 114.332 14.5908 122.157 21.1505 127.76L21.8 127ZM6.8 104L7.74346 103.669C4.3229 93.9331 2.6 82.45 2.6 69.2H1.6H0.6C0.6 82.6167 2.34377 94.3336 5.85654 104.331L6.8 104ZM1.6 69.2H2.6C2.6 55.6887 4.45483 43.9438 8.13834 33.9457L7.2 33.6L6.26166 33.2543C2.47851 43.5228 0.6 55.5113 0.6 69.2H1.6ZM7.2 33.6L8.13979 33.9417C11.8282 23.7985 16.941 16.0275 23.4432 10.5657L22.8 9.79999L22.1568 9.03429C15.3256 14.7725 10.0384 22.8681 6.26021 33.2582L7.2 33.6ZM22.8 9.79999L23.4446 10.5645C30.0664 4.98146 37.6387 2.2 46.2 2.2V1.2V0.199993C37.1613 0.199993 29.1336 3.15186 22.1554 9.03547L22.8 9.79999ZM46.2 1.2V2.2C54.6363 2.2 61.9374 4.8533 68.1505 10.1604L68.8 9.39999L69.4495 8.63962C62.8626 3.01336 55.0971 0.199993 46.2 0.199993V1.2ZM68.8 9.39999L68.1505 10.1604C74.3875 15.4878 79.2343 22.9912 82.6565 32.7315L83.6 32.4L84.5435 32.0685C81.0324 22.0754 76.0125 14.2455 69.4495 8.63962L68.8 9.39999ZM83.6 32.4L82.6606 32.7428C86.2117 42.4755 88 53.8881 88 67H89H90C90 53.7119 88.1883 42.0579 84.5394 32.0572L83.6 32.4ZM89 67H88C88 80.6455 86.145 92.5252 82.4602 102.658L83.4 103L84.3398 103.342C88.1217 92.9415 90 80.8212 90 67H89ZM83.4 103L82.4617 102.654C78.7738 112.664 73.6594 120.442 67.148 126.042L67.8 126.8L68.452 127.558C75.274 121.691 80.5595 113.603 84.3383 103.346L83.4 103ZM67.8 126.8L67.1568 126.034C60.6724 131.481 53.1675 134.2 44.6 134.2V135.2V136.2C53.6325 136.2 61.5943 133.319 68.4432 127.566L67.8 126.8ZM46 123.6V124.6C52.1621 124.6 57.4259 122.204 61.739 117.474L61 116.8L60.261 116.126C56.3074 120.462 51.5712 122.6 46 122.6V123.6ZM61 116.8L61.739 117.474C66.0071 112.793 69.2675 106.371 71.5621 98.2726L70.6 98L69.6379 97.7274C67.3992 105.629 64.2595 111.741 60.261 116.126L61 116.8ZM70.6 98L71.5633 98.2685C73.86 90.0273 75 80.4668 75 69.6H74H73C73 80.3332 71.8733 89.706 69.6367 97.7315L70.6 98ZM74 69.6H75C75 58.0676 73.7936 48.0375 71.3615 39.5253L70.4 39.8L69.4385 40.0747C71.8064 48.3625 73 58.199 73 69.6H74ZM70.4 39.8L71.3627 39.5293C68.9332 30.8911 65.401 24.1247 60.7173 19.3032L60 20L59.2827 20.6968C63.6657 25.2086 67.0668 31.6422 69.4374 40.0707L70.4 39.8ZM60 20L60.7372 19.3243C56.1709 14.3429 50.7795 11.8 44.6 11.8V12.8V13.8C50.1539 13.8 55.0291 16.0571 59.2629 20.6757L60 20ZM44.6 12.8V11.8C38.692 11.8 33.5041 14.2053 29.0718 18.9146L29.8 19.6L30.5282 20.2854C34.6292 15.928 39.308 13.8 44.6 13.8V12.8ZM29.8 19.6L29.0718 18.9146C24.6646 23.5973 21.3342 30.0227 19.0379 38.1274L20 38.4L20.9621 38.6726C23.1991 30.7773 26.4021 24.6693 30.5282 20.2854L29.8 19.6ZM20 38.4L19.0379 38.1274C16.7399 46.238 15.6 55.7337 15.6 66.6H16.6H17.6C17.6 55.8663 18.7268 46.562 20.9621 38.6726L20 38.4ZM16.6 66.6H15.6C15.6 78.1329 16.8065 88.2279 19.2374 96.8707L20.2 96.6L21.1627 96.3293C18.7935 87.9054 17.6 78.0004 17.6 66.6H16.6ZM20.2 96.6L19.2414 96.8846C21.8029 105.513 25.3298 112.331 29.8629 117.276L30.6 116.6L31.3372 115.924C27.0702 111.269 23.6638 104.754 21.1586 96.3154L20.2 96.6ZM30.6 116.6L29.8827 117.297C34.5766 122.129 39.959 124.6 46 124.6V123.6V122.6C40.5743 122.6 35.6901 120.405 31.3173 115.903L30.6 116.6ZM101.594 126.6L100.892 125.888L100.452 126.321L100.643 126.909L101.594 126.6ZM127.594 100.2L126.869 99.5106L126.869 99.5109L127.594 100.2ZM147.394 77L146.597 76.3952L146.59 76.4048L147.394 77ZM159.994 56.4L159.081 55.9904L159.994 56.4ZM157.994 19.6L157.255 20.2738L157.26 20.2796L157.266 20.2854L157.994 19.6ZM124.994 18L125.554 18.8286L125.558 18.8253L124.994 18ZM112.994 35.4L112.589 36.3145L113.562 36.7446L113.931 35.7478L112.994 35.4ZM102.594 30.8L101.67 30.417L101.296 31.3194L102.189 31.7145L102.594 30.8ZM120.194 7.79999L119.679 6.94247L119.672 6.94671L120.194 7.79999ZM162.394 5.8L161.876 6.65549L161.889 6.66344L161.902 6.67097L162.394 5.8ZM173.994 18L173.095 18.438L173.102 18.452L173.109 18.4657L173.994 18ZM170.394 63.4L171.281 63.8617L171.283 63.8568L170.394 63.4ZM148.794 94L149.542 94.6632L149.546 94.6585L148.794 94ZM115.794 127.6L114.832 127.325L113.839 130.802L116.477 128.33L115.794 127.6ZM117.394 122V121H116.639L116.432 121.725L117.394 122ZM183.594 122H184.594V121H183.594V122ZM183.594 134V135H184.594V134H183.594ZM103.994 134L103.043 134.309L103.267 135H103.994V134ZM101.594 126.6L102.296 127.312C111.902 117.839 120.576 109.032 128.318 100.889L127.594 100.2L126.869 99.5109C119.144 107.635 110.485 116.427 100.892 125.888L101.594 126.6ZM127.594 100.2L128.318 100.889C136.206 92.6006 142.834 84.8357 148.197 77.5952L147.394 77L146.59 76.4048C141.287 83.5643 134.715 91.2661 126.869 99.5106L127.594 100.2ZM147.394 77L148.19 77.6047C153.691 70.3592 157.935 63.4274 160.906 56.8096L159.994 56.4L159.081 55.9904C156.186 62.4392 152.029 69.2408 146.597 76.3953L147.394 77ZM159.994 56.4L160.906 56.8096C163.886 50.172 165.394 43.7658 165.394 37.6H164.394H163.394C163.394 43.4342 161.968 49.5613 159.081 55.9904L159.994 56.4ZM164.394 37.6H165.394C165.394 29.9325 163.197 23.6693 158.722 18.9146L157.994 19.6L157.266 20.2854C161.324 24.5974 163.394 30.3342 163.394 37.6H164.394ZM157.994 19.6L158.733 18.9262C154.373 14.1447 148.349 11.8 140.794 11.8V12.8V13.8C147.906 13.8 153.348 15.9886 157.255 20.2738L157.994 19.6ZM140.794 12.8V11.8C135.101 11.8 129.641 13.6088 124.429 17.1747L124.994 18L125.558 18.8253C130.48 15.4579 135.553 13.8 140.794 13.8V12.8ZM124.994 18L124.434 17.1714C119.262 20.6656 115.162 26.6792 112.056 35.0522L112.994 35.4L113.931 35.7478C116.959 27.5874 120.858 22.001 125.554 18.8286L124.994 18ZM112.994 35.4L113.398 34.4855L102.998 29.8855L102.594 30.8L102.189 31.7145L112.589 36.3145L112.994 35.4ZM102.594 30.8L103.517 31.183C108.002 20.3686 113.755 12.9065 120.715 8.65327L120.194 7.79999L119.672 6.94671C112.232 11.4935 106.253 19.3647 101.67 30.417L102.594 30.8ZM120.194 7.79999L120.708 8.65749C127.892 4.34736 135.515 2.2 143.594 2.2V1.2V0.199993C135.139 0.199993 127.162 2.45262 119.679 6.9425L120.194 7.79999ZM143.594 1.2V2.2C150.925 2.2 157.001 3.70509 161.876 6.65549L162.394 5.8L162.912 4.9445C157.653 1.76157 151.196 0.199993 143.594 0.199993V1.2ZM162.394 5.8L161.902 6.67097C166.932 9.50806 170.653 13.4264 173.095 18.438L173.994 18L174.893 17.562C172.268 12.1735 168.256 7.9586 162.885 4.92902L162.394 5.8ZM173.994 18L173.109 18.4657C175.691 23.3726 176.994 28.9429 176.994 35.2H177.994H178.994C178.994 28.6571 177.629 22.7608 174.879 17.5342L173.994 18ZM177.994 35.2H176.994C176.994 43.9407 174.515 53.1844 169.504 62.9432L170.394 63.4L171.283 63.8568C176.405 53.8823 178.994 44.326 178.994 35.2H177.994ZM170.394 63.4L169.507 62.9383C164.486 72.5838 157.336 82.7184 148.041 93.3415L148.794 94L149.546 94.6585C158.918 83.9483 166.168 73.6828 171.281 63.8617L170.394 63.4ZM148.794 94L148.045 93.3368C138.737 103.842 127.759 115.02 115.11 126.87L115.794 127.6L116.477 128.33C129.162 116.447 140.184 105.224 149.542 94.6632L148.794 94ZM115.794 127.6L116.755 127.875L118.355 122.275L117.394 122L116.432 121.725L114.832 127.325L115.794 127.6ZM117.394 122V123H183.594V122V121H117.394V122ZM183.594 122H182.594V134H183.594H184.594V122H183.594ZM183.594 134V133H103.994V134V135H183.594V134ZM103.994 134L104.945 133.691L102.545 126.291L101.594 126.6L100.643 126.909L103.043 134.309L103.994 134Z" fill="#FFF4EC" mask="url(#path-1-outside-1_2840_1359)"/>
<defs>
<filter id="filter0_i_2840_1359" x="0.599609" y="0.200195" width="183.994" height="140" filterUnits="userSpaceOnUse" color-interpolation-filters="sRGB">
<feFlood flood-opacity="0" result="BackgroundImageFix"/>
<feBlend mode="normal" in="SourceGraphic" in2="BackgroundImageFix" result="shape"/>
<feColorMatrix in="SourceAlpha" type="matrix" values="0 0 0 0 0 0 0 0 0 0 0 0 0 0 0 0 0 0 127 0" result="hardAlpha"/>
<feOffset dy="8"/>
<feGaussianBlur stdDeviation="2"/>
<feComposite in2="hardAlpha" operator="arithmetic" k2="-1" k3="1"/>
<feColorMatrix type="matrix" values="0 0 0 0 0 0 0 0 0 0 0 0 0 0 0 0 0 0 0.25 0"/>
<feBlend mode="normal" in2="shape" result="effect1_innerShadow_2840_1359"/>
</filter>
</defs>
</svg>
